<svg xmlns="http://www.w3.org/2000/svg" width="68.93" height="68.93" viewBox="0 0 68.93 68.93">
  <path id="clock-regular" d="M42.465,8A34.465,34.465,0,1,0,76.93,42.465,34.459,34.459,0,0,0,42.465,8Zm0,62.26A27.794,27.794,0,1,1,70.26,42.465,27.787,27.787,0,0,1,42.465,70.26Zm8.588-14.509-11.8-8.575a1.679,1.679,0,0,1-.681-1.348V23.009a1.673,1.673,0,0,1,1.668-1.668h4.447a1.673,1.673,0,0,1,1.668,1.668V42.7l9.283,6.754A1.667,1.667,0,0,1,56,51.79l-2.613,3.6a1.679,1.679,0,0,1-2.335.361Z" transform="translate(-8 -8)" fill="#778ca3"/>
</svg>
