<svg xmlns="http://www.w3.org/2000/svg" width="86.162" height="68.93" viewBox="0 0 86.162 68.93">
  <path id="tags-solid" d="M67.037,30.418,38.512,1.893A6.462,6.462,0,0,0,33.942,0H6.462A6.462,6.462,0,0,0,0,6.462v27.48a6.462,6.462,0,0,0,1.893,4.569L30.418,67.037a6.462,6.462,0,0,0,9.139,0l27.48-27.48a6.462,6.462,0,0,0,0-9.139ZM15.078,21.541a6.462,6.462,0,1,1,6.462-6.462A6.462,6.462,0,0,1,15.078,21.541ZM84.27,39.557,56.79,67.037a6.462,6.462,0,0,1-9.139,0l-.048-.048L71.036,43.556a12.117,12.117,0,0,0,0-17.136L44.616,0h6.559a6.462,6.462,0,0,1,4.569,1.893L84.27,30.418a6.462,6.462,0,0,1,0,9.139Z" fill="#778ca3"/>
</svg>
